HIERARCHY
ROOT Hips
{
	OFFSET 0.000000 0.000000 0.000000
	CHANNELS 6 Xposition Yposition Zposition Xrotation Yrotation Zrotation
	JOINT LeftUpLeg_virtual
	{
		OFFSET 0.000000 0.000000 0.000000
		CHANNELS 3 Xrotation Yrotation Zrotation
		JOINT LeftUpLeg
		{
			OFFSET 11.394100 -6.187798 -0.413800
			CHANNELS 3 Xrotation Yrotation Zrotation
			JOINT LeftLeg
			{
				OFFSET 0.430247 -32.302673 3.732800
				CHANNELS 3 Xrotation Yrotation Zrotation
				JOINT LeftFoot
				{
					OFFSET -0.430247 -48.264931 -6.423300
					CHANNELS 3 Xrotation Yrotation Zrotation
					JOINT LeftToeBase
					{
						OFFSET 4.230900 -16.068199 23.438400
						CHANNELS 3 Xrotation Yrotation Zrotation
						JOINT LeftToe_End
						{
							OFFSET 4.510700 0.695400 19.974600
							CHANNELS 3 Xrotation Yrotation Zrotation
							End Site
							{
								OFFSET 0 0 0
							}
						}
					}
				}
			}
		}
	}
	JOINT RightUpLeg_virtual
	{
		OFFSET 0.000000 0.000000 0.000000
		CHANNELS 3 Xrotation Yrotation Zrotation
		JOINT RightUpLeg
		{
			OFFSET -11.333700 -6.187798 -0.413800
			CHANNELS 3 Xrotation Yrotation Zrotation
			JOINT RightLeg
			{
				OFFSET -0.430392 -32.302628 3.733000
				CHANNELS 3 Xrotation Yrotation Zrotation
				JOINT RightFoot
				{
					OFFSET 0.430392 -48.264973 -6.423500
					CHANNELS 3 Xrotation Yrotation Zrotation
					JOINT RightToeBase
					{
						OFFSET -4.230900 -16.068199 23.438400
						CHANNELS 3 Xrotation Yrotation Zrotation
						JOINT RightToe_End
						{
							OFFSET -4.510700 0.695400 19.974600
							CHANNELS 3 Xrotation Yrotation Zrotation
							End Site
							{
								OFFSET 0 0 0
							}
						}
					}
				}
			}
		}
	}
	JOINT Spine_virtual
	{
		OFFSET 0.000000 0.000000 0.000000
		CHANNELS 3 Xrotation Yrotation Zrotation
		JOINT Spine
		{
			OFFSET -0.002400 12.777504 0.315300
			CHANNELS 3 Xrotation Yrotation Zrotation
			JOINT Spine1
			{
				OFFSET -0.002067 5.816869 0.032633
				CHANNELS 3 Xrotation Yrotation Zrotation
				JOINT Spine1_split
				{
					OFFSET -0.002067 5.816869 0.032633
					CHANNELS 3 Xrotation Yrotation Zrotation
					JOINT Spine2
					{
						OFFSET -0.002067 5.816869 0.032633
						CHANNELS 3 Xrotation Yrotation Zrotation
						JOINT Neck_virtual
						{
							OFFSET 0.000000 0.000000 0.000000
							CHANNELS 3 Xrotation Yrotation Zrotation
							JOINT Neck
							{
								OFFSET -0.003700 21.199493 -0.826900
								CHANNELS 3 Xrotation Yrotation Zrotation
								JOINT Head
								{
									OFFSET 0.000000 20.442200 4.834800
									CHANNELS 3 Xrotation Yrotation Zrotation
									JOINT HeadTop_End
									{
										OFFSET 0.000000 34.668396 4.968400
										CHANNELS 3 Xrotation Yrotation Zrotation
										End Site
										{
											OFFSET 0 0 0
										}
									}
								}
							}
						}
						JOINT LeftShoulder_virtual
						{
							OFFSET 0.000000 0.000000 0.000000
							CHANNELS 3 Xrotation Yrotation Zrotation
							JOINT LeftShoulder
							{
								OFFSET 3.288150 8.794197 -1.372250
								CHANNELS 3 Xrotation Yrotation Zrotation
								JOINT LeftShoulder_split
								{
									OFFSET 3.288150 8.794197 -1.372250
									CHANNELS 3 Xrotation Yrotation Zrotation
									JOINT LeftArm
									{
										OFFSET 11.953299 -2.279007 -0.146200
										CHANNELS 3 Xrotation Yrotation Zrotation
										JOINT LeftForeArm
										{
											OFFSET 18.448900 0.000000 0.000000
											CHANNELS 3 Xrotation Yrotation Zrotation
											JOINT LeftHand
											{
												OFFSET 29.527798 0.000000 0.000000
												CHANNELS 3 Xrotation Yrotation Zrotation
												End Site
												{
													OFFSET 0 0 0
												}
											}
										}
									}
								}
							}
						}
						JOINT RightShoulder_virtual
						{
							OFFSET 0.000000 0.000000 0.000000
							CHANNELS 3 Xrotation Yrotation Zrotation
							JOINT RightShoulder
							{
								OFFSET -3.249400 8.794197 -1.372250
								CHANNELS 3 Xrotation Yrotation Zrotation
								JOINT RightShoulder_split
								{
									OFFSET -3.249400 8.794197 -1.372250
									CHANNELS 3 Xrotation Yrotation Zrotation
									JOINT RightArm
									{
										OFFSET -11.953299 -2.279007 -0.146200
										CHANNELS 3 Xrotation Yrotation Zrotation
										JOINT RightForeArm
										{
											OFFSET -18.448900 0.000000 0.000000
											CHANNELS 3 Xrotation Yrotation Zrotation
											JOINT RightHand
											{
												OFFSET -29.527802 0.000000 0.000000
												CHANNELS 3 Xrotation Yrotation Zrotation
												End Site
												{
													OFFSET 0 0 0
												}
											}
										}
									}
								}
							}
						}
					}
				}
			}
		}
	}
}
MOTION
Frames: 11
Frame Time: 0.03333333
-0.631570 85.136467 -4.398506 0.000000 0.000000 0.000000 -14.362088 2.115974 0.518175 -24.579412 -4.118951 14.490581 60.361114 -0.333472 1.032656 -17.610304 -1.354111 -12.061789 -1.889427 -0.632276 0.726634 0.000000 0.000000 0.000000 -14.918581 1.887816 0.624114 -17.098463 -4.269110 -14.864471 57.212434 0.028402 -0.477364 -23.576358 -4.664288 10.264185 0.687668 0.374906 -0.424436 0.000000 0.000000 0.000000 -14.542728 0.652605 0.132803 18.416468 0.637873 2.259410 4.395249 -0.109647 0.196217 2.177897 3.516819 -0.189111 0.000000 0.000000 0.000000 5.430040 -0.214237 0.625657 -12.426857 -1.670259 1.033773 -17.516280 -1.734182 -0.088407 0.000000 0.000000 0.000000 5.772668 -0.091152 0.940930 4.288924 -9.497107 -3.878423 -4.293751 -0.367106 -4.104682 -8.526551 -15.468121 -56.626308 67.652730 -60.287389 68.698890 0.000000 0.000000 0.000000 5.674554 -0.240554 0.089538 11.066755 -7.141252 17.502744 2.263311 1.278641 1.076189 -23.768578 17.746761 58.720509 88.006639 60.158742 -81.674378 0.000000 0.000000 0.000000 
-0.740443 85.222191 -4.259239 0.000000 0.000000 0.000000 -14.435805 2.237022 0.449229 -24.544556 -4.335130 14.501004 60.289991 -0.351882 1.006757 -17.646285 -1.406677 -12.071275 -1.806670 -0.614715 0.771436 0.000000 0.000000 0.000000 -15.065750 2.188246 0.573371 -16.783272 -4.206658 -14.792518 57.449930 0.074654 -0.490982 -23.701385 -4.660794 10.157006 0.954279 0.411058 -0.450906 0.000000 0.000000 0.000000 -14.650213 0.947026 0.090913 18.277279 0.546265 2.170629 4.469762 -0.156287 0.235227 2.061045 3.854790 0.071601 0.000000 0.000000 0.000000 5.476867 -0.275902 0.672958 -12.582270 -1.586581 0.839156 -17.869134 -1.336600 -0.331685 0.000000 0.000000 0.000000 5.803714 -0.111056 0.987690 4.382309 -9.504645 -3.615579 -3.813147 -0.601232 -4.560089 -10.460028 -15.833046 -58.548928 64.638212 -59.349904 65.803265 0.000000 0.000000 0.000000 5.805618 -0.255291 0.136395 10.809663 -7.133386 17.726501 2.362065 0.535880 2.487605 -23.473858 16.499726 59.331053 86.308893 61.310763 -80.489982 0.000000 0.000000 0.000000 
-0.857622 85.391457 -4.168795 0.000000 0.000000 0.000000 -14.696332 2.378985 0.418218 -24.395052 -4.514421 14.371526 60.237289 -0.344890 0.991647 -17.776956 -1.376830 -12.141104 -1.701984 -0.552534 0.745883 0.000000 0.000000 0.000000 -15.343327 2.436795 0.506447 -16.151616 -4.266287 -14.747423 57.496041 0.221496 -0.571127 -23.720581 -4.762248 10.257398 0.861339 0.417035 -0.483227 0.000000 0.000000 0.000000 -14.941812 1.354740 0.055877 18.368071 0.375149 1.910166 4.664842 -0.100118 0.281093 1.609469 3.443878 0.301249 0.000000 0.000000 0.000000 5.638890 -0.211259 0.620640 -12.121658 -1.455434 0.483476 -18.553072 -1.067434 -0.572174 0.000000 0.000000 0.000000 5.906465 -0.032438 0.992795 4.091603 -10.134611 -3.437351 -3.606675 -1.415304 -3.988068 -10.947453 -15.472050 -58.846683 58.175255 -59.717252 59.692015 0.000000 0.000000 0.000000 6.117832 -0.135249 0.214146 10.369592 -6.848761 17.867939 0.980894 -0.172938 2.574802 -21.346286 17.283326 58.312159 82.865419 64.937948 -78.301132 0.000000 0.000000 0.000000 
-0.952225 85.622925 -4.137177 0.000000 0.000000 0.000000 -15.106183 2.524185 0.428912 -24.099747 -4.573431 14.090556 60.199518 -0.282754 1.008827 -17.914258 -1.267376 -12.187444 -1.631087 -0.461755 0.650034 0.000000 0.000000 0.000000 -15.681525 2.609992 0.465897 -15.243162 -4.434052 -14.733285 57.295793 0.376237 -0.673687 -23.769740 -4.992458 10.359973 0.574463 0.387607 -0.462881 0.000000 0.000000 0.000000 -15.383427 1.693738 0.092503 18.655970 0.129164 1.553286 4.918204 0.021507 0.302198 1.011836 2.563102 0.816996 0.000000 0.000000 0.000000 5.887086 -0.083450 0.503713 -10.900348 -1.257584 -0.028765 -19.184859 -0.822970 -0.885537 0.000000 0.000000 0.000000 6.041478 0.089472 0.965590 3.544974 -11.125690 -3.087433 -3.407116 -2.710058 -2.874451 -9.533928 -14.634490 -56.686206 50.420928 -61.922263 52.299868 0.000000 0.000000 0.000000 6.488118 0.029120 0.286614 9.861437 -6.349314 17.667710 -1.278385 -0.796700 1.842057 -16.748271 19.464323 54.949415 79.852568 70.729840 -76.734505 0.000000 0.000000 0.000000 
-1.011067 85.936668 -4.109203 0.000000 0.000000 0.000000 -15.630422 2.626557 0.522469 -23.626905 -4.500529 13.677572 60.037049 -0.157867 1.062579 -17.957985 -1.117077 -12.123000 -1.632039 -0.366807 0.511166 0.000000 0.000000 0.000000 -16.026416 2.783865 0.512371 -14.194829 -4.681681 -14.729783 56.749996 0.425230 -0.758957 -23.829663 -5.339609 10.264191 0.384536 0.337563 -0.369942 0.000000 0.000000 0.000000 -15.956661 1.920657 0.217322 19.033845 -0.211882 1.182769 5.132075 0.130165 0.300729 0.132248 1.565538 1.292680 0.000000 0.000000 0.000000 6.206944 0.010340 0.348698 -8.694587 -0.963722 -0.661988 -19.403707 -0.582064 -1.216827 0.000000 0.000000 0.000000 6.176094 0.169481 0.933908 2.933711 -12.214577 -2.314141 -3.401587 -3.413374 -2.101292 -6.293645 -13.676922 -51.824607 41.888591 -66.178140 44.106770 0.000000 0.000000 0.000000 6.846361 0.123019 0.352912 9.342102 -5.795447 16.893018 -2.994738 -0.924173 0.644247 -9.483075 21.575926 49.109904 77.291896 77.823237 -75.197336 0.000000 0.000000 0.000000 
-1.034040 86.378426 -4.127541 0.000000 0.000000 0.000000 -16.155648 2.682332 0.705623 -22.953766 -4.379783 13.169820 59.646293 -0.004873 1.169180 -17.780637 -1.010990 -11.951988 -1.701852 -0.292591 0.365087 0.000000 0.000000 0.000000 -16.318929 2.998456 0.685164 -13.198450 -4.955397 -14.728442 55.841970 0.363675 -0.797322 -23.772678 -5.710693 10.004340 0.401959 0.291324 -0.217333 0.000000 0.000000 0.000000 -16.567488 2.043621 0.450342 19.380669 -0.643164 0.877378 5.244283 0.143068 0.290216 -0.836158 0.732465 1.323638 0.000000 0.000000 0.000000 6.550375 0.026273 0.223823 -5.341318 -0.612006 -1.345034 -18.955138 -0.366157 -1.581389 0.000000 0.000000 0.000000 6.277976 0.141483 0.929030 2.490062 -13.187675 -1.033230 -3.156090 -3.643912 -1.929648 -1.761257 -12.698889 -44.394344 31.452297 -72.148299 33.922698 0.000000 0.000000 0.000000 7.106430 0.092190 0.427288 8.821468 -5.156954 15.338730 -3.978634 -0.663586 -0.249932 -0.888051 21.677045 41.447777 66.429819 84.853530 -64.651183 0.000000 0.000000 0.000000 
-1.039999 86.922531 -4.220322 0.000000 0.000000 0.000000 -16.633135 2.705486 0.949874 -22.150421 -4.287402 12.660139 58.959798 0.114447 1.325863 -17.284367 -0.986864 -11.761319 -1.780096 -0.253946 0.238584 0.000000 0.000000 0.000000 -16.562772 3.282409 0.971532 -12.346971 -5.221327 -14.760797 54.642459 0.272539 -0.816460 -23.466086 -5.993614 9.800037 0.480862 0.277370 -0.093557 0.000000 0.000000 0.000000 -17.136101 2.163621 0.728734 19.609103 -1.153769 0.662065 5.338236 0.033274 0.282463 -1.310635 0.842853 1.135262 0.000000 0.000000 0.000000 6.832805 -0.081499 0.196343 -0.801406 -0.259399 -1.998209 -17.869619 -0.148311 -1.864688 0.000000 0.000000 0.000000 6.400898 -0.001061 0.933530 2.400809 -13.936521 0.730318 -2.593081 -4.090175 -2.191577 3.665147 -11.399647 -35.044164 14.670319 -77.959424 17.229994 0.000000 0.000000 0.000000 7.154671 -0.061305 0.556706 8.252140 -4.302530 13.175665 -4.334091 -0.017484 -0.645048 6.032613 19.088762 33.752678 -35.752342 86.963847 37.719279 0.000000 0.000000 0.000000 
-0.974226 87.497627 -4.341021 0.000000 0.000000 0.000000 -17.017618 2.790666 1.189398 -21.323062 -4.288296 12.232569 58.025114 0.139437 1.497539 -16.526836 -1.059978 -11.636343 -1.817546 -0.250495 0.148524 0.000000 0.000000 0.000000 -16.750749 3.574649 1.256267 -11.726588 -5.426903 -14.821089 53.299914 0.230576 -0.859482 -22.897956 -6.102492 9.836203 0.490204 0.309431 -0.072280 0.000000 0.000000 0.000000 -17.554730 2.354712 0.900798 19.729944 -1.707333 0.566714 5.483900 -0.178175 0.301770 -0.986443 1.424815 0.858005 0.000000 0.000000 0.000000 6.947683 -0.299162 0.304508 4.735450 0.017741 -2.567331 -16.256456 -0.012183 -2.044720 0.000000 0.000000 0.000000 6.551468 -0.247687 0.925585 2.637944 -14.354759 2.645564 -2.189396 -4.451476 -2.256389 8.375397 -9.225812 -25.290135 -12.013662 -80.610207 -9.474002 0.000000 0.000000 0.000000 7.012186 -0.264156 0.733918 7.605174 -3.359491 10.709395 -3.964814 0.740561 -0.651075 8.048987 14.779882 27.320950 -64.777009 82.226885 67.064282 0.000000 0.000000 0.000000 
-0.793134 87.975296 -4.565056 0.000000 0.000000 0.000000 -17.251388 2.954694 1.314548 -20.696896 -4.403175 11.929135 57.101327 0.089072 1.631186 -15.675853 -1.207644 -11.597848 -1.794825 -0.277371 0.095897 0.000000 0.000000 0.000000 -16.877930 3.840241 1.401591 -11.363043 -5.551258 -14.884630 52.132378 0.275744 -0.936349 -22.317127 -6.005974 10.122415 0.415652 0.386843 -0.131384 0.000000 0.000000 0.000000 -17.724355 2.589524 0.866165 19.877167 -2.189922 0.621100 5.794745 -0.421244 0.380936 -0.066532 1.935730 0.578893 0.000000 0.000000 0.000000 6.905652 -0.554575 0.560462 10.906424 0.170184 -3.005158 -14.252510 0.059399 -2.089790 0.000000 0.000000 0.000000 6.800663 -0.508728 0.906177 3.041706 -14.337718 4.329262 -1.873393 -4.480057 -1.913483 9.712961 -6.343310 -16.739672 -32.486016 -80.207424 -29.973394 0.000000 0.000000 0.000000 6.828001 -0.434776 0.920831 6.888884 -2.501890 8.431680 -3.217399 1.003074 -0.764265 3.449144 10.717337 22.525083 -74.810188 78.775174 77.307360 0.000000 0.000000 0.000000 
-0.544687 88.182350 -4.877468 0.000000 0.000000 0.000000 -17.335037 3.238361 1.251269 -20.501737 -4.599159 11.779819 56.517930 0.024372 1.683548 -15.020617 -1.370812 -11.560741 -1.740385 -0.323195 0.069469 0.000000 0.000000 0.000000 -16.963511 4.059111 1.343958 -11.341554 -5.548051 -14.935578 51.506245 0.393147 -1.036408 -22.025396 -5.737233 10.545983 0.310053 0.478837 -0.212973 0.000000 0.000000 0.000000 -17.620061 2.859449 0.613283 20.197812 -2.491620 0.793918 6.362992 -0.595449 0.547392 0.915618 1.803998 0.406673 0.000000 0.000000 0.000000 6.895723 -0.757942 0.907441 17.141862 0.175466 -3.290387 -12.120444 -0.008990 -2.002868 0.000000 0.000000 0.000000 7.277727 -0.688800 0.916983 3.417557 -13.908526 5.495811 -2.165495 -3.906971 -1.674739 5.418473 -3.537362 -10.496299 -40.556506 -79.705084 -37.977037 0.000000 0.000000 0.000000 6.800405 -0.535316 1.112958 6.201574 -1.807487 6.874403 -2.411360 0.959193 -1.132078 -8.139548 8.439370 19.780969 -89.397505 76.873711 91.986208 0.000000 0.000000 0.000000 
-0.294810 87.947868 -5.271208 0.000000 0.000000 0.000000 -17.261177 3.652253 0.992627 -20.972024 -4.840221 11.779785 56.648517 0.004890 1.616463 -14.828950 -1.516623 -11.446758 -1.694592 -0.373598 0.050914 0.000000 0.000000 0.000000 -16.980933 4.243076 1.063046 -11.794879 -5.409092 -15.003441 51.818671 0.563475 -1.121925 -22.193486 -5.374708 10.964251 0.181364 0.549767 -0.225543 0.000000 0.000000 0.000000 -17.311232 3.139014 0.251984 20.712433 -2.569291 1.041257 7.192227 -0.678822 0.783001 1.815559 1.289242 0.471978 0.000000 0.000000 0.000000 7.172486 -0.838098 1.265901 22.813404 0.038925 -3.370933 -10.010555 -0.329234 -1.786929 0.000000 0.000000 0.000000 7.938132 -0.747941 0.988573 3.547623 -13.189385 5.529746 -2.610248 -3.042249 -1.386768 -5.409382 -1.379124 -7.351427 -49.885820 -81.333988 -47.200039 0.000000 0.000000 0.000000 7.126918 -0.536895 1.266791 5.761004 -1.263924 6.689234 -1.768705 0.725031 -1.592767 -24.768629 8.137866 20.259265 -108.991945 75.154252 111.803428 0.000000 0.000000 0.000000 
